<svg width="1440" height="1024" viewBox="0 0 1440 1024" fill="none" xmlns="http://www.w3.org/2000/svg">
<rect x="655.604" y="580" width="852" height="313.806" rx="156.903" transform="rotate(35.3601 655.604 580)" fill="#FFEECD"/>
<rect x="56.6799" y="742" width="317.398" height="317.394" rx="158.697" transform="rotate(35.3601 56.6799 742)" fill="#FFE4AE"/>
<rect x="405.201" y="473" width="154.138" height="154.136" rx="77.0682" transform="rotate(35.3601 405.201 473)" fill="#D0BAFF" fill-opacity="0.52"/>
<rect x="1158.2" y="641" width="154.138" height="154.136" rx="77.0682" transform="rotate(35.3601 1158.2 641)" fill="#FFE8BA"/>
<rect x="1348.86" y="-257" width="350.544" height="350.539" rx="175.27" transform="rotate(35.3601 1348.86 -257)" fill="#D0BAFF"/>
<rect x="724.401" y="-77" width="1028.45" height="258.16" rx="129.08" transform="rotate(35.3601 724.401 -77)" fill="#FFCACA"/>
<rect x="-134.396" y="-332" width="852" height="313.806" rx="156.903" transform="rotate(35.3601 -134.396 -332)" fill="#D9D9D9" fill-opacity="0.64"/>
<rect x="1349.82" y="875" width="111.235" height="17.4811" rx="8.74055" transform="rotate(42.5324 1349.82 875)" fill="#FAEDD4"/>
<rect x="1378.82" y="213" width="242.237" height="17.4811" rx="8.74055" transform="rotate(42.5324 1378.82 213)" fill="#FAEDD4"/>
<rect x="216.086" y="655.471" width="82.7467" height="17.4811" rx="8.74055" transform="rotate(42.5324 216.086 655.471)" fill="#FAEDD4"/>
<rect x="920.817" y="469" width="130.595" height="17.4811" rx="8.74055" transform="rotate(42.5324 920.817 469)" fill="#FAEDD4"/>
<rect x="375.817" y="958" width="97.5419" height="17.4811" rx="8.74055" transform="rotate(42.5324 375.817 958)" fill="#FAEDD4"/>
<rect x="485.817" y="-13" width="130.595" height="17.4811" rx="8.74055" transform="rotate(42.5324 485.817 -13)" fill="#FAEDD4"/>
<rect x="-0.182617" y="470" width="75.8371" height="17.4811" rx="8.74055" transform="rotate(42.5324 -0.182617 470)" fill="#FAEDD4"/>
</svg>
