<svg width="68" height="68" viewBox="0 0 68 68" fill="none" xmlns="http://www.w3.org/2000/svg">
<path d="M50.6291 15.4807L52.6252 12.9819C55.3606 9.56642 54.8061 4.5762 51.3831 1.84083L51.2575 1.73732C47.842 -0.998053 42.8518 -0.443584 40.1164 2.97933L38.1277 5.47075L50.6291 15.4807Z" fill="black" fill-opacity="0.47"/>
<path d="M38.4825 36.484C38.549 37.0902 38.8521 37.6669 39.3623 38.0809C40.3899 38.9015 41.8906 38.7389 42.7112 37.7112L56.4251 20.5597C57.2605 19.5173 57.0757 17.9869 56.0037 17.1737C54.9687 16.3901 53.4827 16.6119 52.6695 17.6247L51.3314 19.2955L49.0396 17.462L49.047 17.4547L36.5529 7.43726L4.586 47.396L17.0874 57.406L46.075 21.1807L48.3668 23.0141L38.9926 34.7319C38.5787 35.2419 38.416 35.8778 38.4825 36.484Z" fill="black" fill-opacity="0.47"/>
<path d="M15.01 59.2542L3.23312 49.8208C3.0409 50.4788 2.94479 51.0554 2.94479 51.0554L0.24638 63.9782C0.0541643 64.9098 1.00046 65.6712 1.86543 65.272L13.8863 59.8012C13.8789 59.8012 14.4112 59.5795 15.01 59.2542Z" fill="black" fill-opacity="0.47"/>
<path d="M66.0655 61.5681C65.962 61.5681 65.8659 61.5755 65.7624 61.5903L47.598 63.9413C46.6665 64.0596 46.016 63.0393 46.5186 62.2409C46.7921 61.8195 47.0583 61.3907 47.3244 60.9619C48.0268 59.8234 47.0879 58.3079 45.7867 58.3079C45.698 58.3079 45.6093 58.3153 45.5132 58.3301L21.708 61.9082L18.8617 62.337L11.0992 63.5052C10.2194 63.6382 9.62798 64.3848 9.70191 65.2795C9.73148 65.6786 9.89412 66.0557 10.1529 66.3366C10.456 66.6693 10.8774 66.8541 11.3357 66.8541C11.4245 66.8541 11.5132 66.8467 11.6093 66.832L39.9833 62.5663C40.9518 62.4184 41.6172 63.5125 41.0479 64.311C40.863 64.5623 40.6782 64.8211 40.4934 65.0725C39.9833 65.7674 40.1016 66.9281 40.693 67.5269C40.9961 67.8374 41.3805 68 41.7871 68C41.8316 68 41.8833 68 41.9276 67.9926H41.935H41.9425L66.4352 64.8728H66.4426H66.45C66.8714 64.8063 67.241 64.5623 67.485 64.1852C67.7512 63.7712 67.8472 63.2611 67.729 62.8028C67.5367 62.056 66.8861 61.5681 66.0655 61.5681Z" fill="black" fill-opacity="0.47"/>
</svg>
